<svg xmlns="http://www.w3.org/2000/svg" viewBox="0 0 274 75" role="img" aria-labelledby="title">
  <title id="title">学堂在线</title>
  <g fill="none" stroke-linejoin="round">
    <path d="M4 17 26 22v21L4 37Z" fill="#11b45f"/>
    <path d="M31 22 54 17v20L31 43Z" fill="#f4bd00"/>
    <path d="M4 43 26 49v20L4 62Z" fill="#ff514d"/>
    <path d="M31 49 54 43v19L31 69Z" fill="#2678ea"/>
    <path d="M4 17 26 22v21L4 37Z" stroke="#0a1018" stroke-width="3"/>
    <path d="M31 22 54 17v20L31 43Z" stroke="#0a1018" stroke-width="3"/>
    <path d="M4 43 26 49v20L4 62Z" stroke="#0a1018" stroke-width="3"/>
    <path d="M31 49 54 43v19L31 69Z" stroke="#0a1018" stroke-width="3"/>
    <path d="M26 22v47M31 22v47" stroke="#0a1018" stroke-width="4"/>
  </g>
  <text x="68" y="53" fill="#4b4b4b" font-family="PingFang SC, Microsoft YaHei, Noto Sans CJK SC, Arial, sans-serif" font-size="38" font-weight="800" letter-spacing="0">学堂在线</text>
</svg>
